# xmcd
#
# Track frame offsets:
# 150
# 18528
# 36261
# 53783
# 70446
# 88148
# 106416
# 121954
# 139175
# 153404
# 170139
# 183129
#
# Disc length: 2650 seconds
#
#
# Revision: 2
# Processed by: cddbd v1.5.2PL0 Copyright (c) Steve Scherf et al.
# Submitted via: FreeRIP 2.96 
#
DISCID=a80a580c
DTITLE=Alex Legg - Healesville
DYEAR=2003
DGENRE=Blues
TTITLE0=Healesville
TTITLE1=Medicine Cup
TTITLE2=Too Many Children
TTITLE3=Sweet Mayo
TTITLE4=Some Old Junk Shop
TTITLE5=The Halloween Dance
TTITLE6=The Upright Song
TTITLE7=The Mighty Fall
TTITLE8=He Didn't Know His Daddy
TTITLE9=Cold in the Doorway
TTITLE10=A Passionate Man
TTITLE11=Who are These Strangers
EXTD=
EXTT0=
EXTT1=
EXTT2=
EXTT3=
EXTT4=
EXTT5=
EXTT6=
EXTT7=
EXTT8=
EXTT9=
EXTT10=
EXTT11=
PLAYORDER=
